<svg xmlns="http://www.w3.org/2000/svg" viewBox="0 0 269.32 77.35">
  <defs>
    <style>
      .cls-1 {
        fill: #1e1e1e;
      }

      .cls-2 {
        fill: #414141;
      }

      .cls-3 {
        fill: #f3e717;
      }
    </style>
  </defs>
  <g id="INICIO_LOGO_" data-name="INICIO (LOGO)" transform="translate(-676.18 -47.3)">
    <g id="Group_164" data-name="Group 164">
      <g id="Group_156" data-name="Group 156">
        <path id="Path_1240" data-name="Path 1240" class="cls-1" d="M676.2,62.2l3.2,38a1.234,1.234,0,0,0,.4.8l28.7,23.5a.746.746,0,0,0,.9,0L738.1,101a1.234,1.234,0,0,0,.4-.8l3.2-38a.891.891,0,0,0-.5-.8L709.4,47.6a1.379,1.379,0,0,0-.9,0L676.7,61.4A.688.688,0,0,0,676.2,62.2Z"/>
      </g>
      <g id="Group_157" data-name="Group 157">
        <path id="Path_1241" data-name="Path 1241" class="cls-2" d="M708.9,124.5c.2,0,.4,0,.5-.2l28.7-23.5a1.234,1.234,0,0,0,.4-.8l3.2-38a.891.891,0,0,0-.5-.8L709.4,47.4a.749.749,0,0,0-.5-.1v77.2Z"/>
      </g>
      <g id="Group_158" data-name="Group 158">
        <path id="Path_1242" data-name="Path 1242" class="cls-2" d="M679.2,64.3l2.9,34.5a1.012,1.012,0,0,0,.4.7l26.1,21.3a.6.6,0,0,0,.4.1V80.7L679.4,63.9C679.2,64.1,679.1,64.2,679.2,64.3Z"/>
      </g>
      <g id="Group_159" data-name="Group 159">
        <path id="Path_1243" data-name="Path 1243" class="cls-1" d="M738.6,64.3l-2.9,34.5a1.012,1.012,0,0,1-.4.7l-26.1,21.3a.6.6,0,0,1-.4.1V80.7l29.6-16.8A.4.4,0,0,1,738.6,64.3Z"/>
      </g>
      <g id="Group_160" data-name="Group 160">
        <path id="Path_1244" data-name="Path 1244" class="cls-3" d="M734.1,63.8l-1.3-2.3c-.1-.2,0-.2.1-.2l5.2,2.3a.891.891,0,0,1,.5.8l-.5,5.9c0,.2-.1.2-.2.1l-1.6-2.7c-.1-.2-.3-.2-.5-.1L711,81.9a.55.55,0,0,0-.3.5v33.8a.43.43,0,0,0,.4.4h3.1c.2,0,.2.1.1.2l-5,4.1a.746.746,0,0,1-.9,0l-5-4.1c-.2-.1-.1-.2.1-.2h3.1a.43.43,0,0,0,.4-.4V82.4a.55.55,0,0,0-.3-.5L681.9,67.6a.44.44,0,0,0-.5.1l-1.6,2.7c-.1.2-.2.1-.2-.1l-.5-6a.891.891,0,0,1,.5-.8l5.2-2.3c.2-.1.2,0,.1.2l-1.3,2.3a.44.44,0,0,0,.1.5l24.8,14.3a.637.637,0,0,0,.6,0l24.8-14.3C734.1,64.2,734.2,64,734.1,63.8Z"/>
      </g>
      <g id="Group_161" data-name="Group 161">
        <path id="Path_1245" data-name="Path 1245" class="cls-3" d="M708.4,52.6l-13.9,6.2a.629.629,0,0,1-.6,0l-1-.6q-.3-.15,0-.3l15.5-6.7a1.379,1.379,0,0,1,.9,0l15.5,6.7q.3.15,0,.3l-1,.6a.629.629,0,0,1-.6,0l-13.9-6.2A1.379,1.379,0,0,0,708.4,52.6Z"/>
      </g>
      <g id="Group_162" data-name="Group 162">
        <path id="Path_1246" data-name="Path 1246" class="cls-3" d="M720.9,109.9v1.2c0,.2.1.3.3.1l14.2-11.6a1.234,1.234,0,0,0,.4-.8l1.6-19.7c0-.2-.1-.3-.3-.2l-1,.6a.55.55,0,0,0-.3.5l-1.5,18.1a1.234,1.234,0,0,1-.4.8l-12.7,10.4A.864.864,0,0,0,720.9,109.9Z"/>
      </g>
      <g id="Group_163" data-name="Group 163">
        <path id="Path_1247" data-name="Path 1247" class="cls-3" d="M683.9,98.9l12.7,10.4a.713.713,0,0,1,.3.6v1.2c0,.2-.1.3-.3.1L682.4,99.6a1.234,1.234,0,0,1-.4-.8l-1.6-19.7c0-.2.1-.3.3-.2l1,.6a.55.55,0,0,1,.3.5l1.5,18.1A1.039,1.039,0,0,0,683.9,98.9Z"/>
      </g>
    </g>
    <g id="Group_169" data-name="Group 169">
      <g id="Group_165" data-name="Group 165">
        <path id="Path_1248" data-name="Path 1248" d="M765.7,72.5h9.5a24.391,24.391,0,0,1,2.8.1,9.3,9.3,0,0,1,2.4.5,8.477,8.477,0,0,1,1.9,1,4.39,4.39,0,0,1,1.4,1.6,7.725,7.725,0,0,1,1.2,4.3,8.62,8.62,0,0,1-.6,3.4,5.778,5.778,0,0,1-1.9,2.5,7.077,7.077,0,0,1-3,1.5,17.045,17.045,0,0,1-4.1.5H770v9.6h-4.2v-25Zm4.2,11.9h5.3a9,9,0,0,0,2.5-.3,6.712,6.712,0,0,0,1.7-.8,3.805,3.805,0,0,0,.9-1.3,4.844,4.844,0,0,0,.3-1.8,3.575,3.575,0,0,0-.4-1.9,4.125,4.125,0,0,0-1-1.3,6.689,6.689,0,0,0-1.7-.7,8.216,8.216,0,0,0-2.3-.2h-5.3Z"/>
      </g>
      <g id="Group_166" data-name="Group 166">
        <path id="Path_1249" data-name="Path 1249" d="M799.2,95.8a9.814,9.814,0,0,1-8.6,1.9,6.256,6.256,0,0,1-2-1,5.392,5.392,0,0,1-1.4-1.6,5.556,5.556,0,0,1-.5-2.3,5.039,5.039,0,0,1,2.7-4.7c1.8-1,4.5-1.6,8.2-1.6h1.5V85.1c0-.4-.1-.7-.1-1a2.371,2.371,0,0,0-.9-1.5,4.369,4.369,0,0,0-2.9-.8,5.129,5.129,0,0,0-3,.7,2.788,2.788,0,0,0-1.1,2.2h-3.9c.2-3.7,2.9-5.6,8.1-5.6a15.138,15.138,0,0,1,3.2.3,7.066,7.066,0,0,1,2.5,1.1,4.6,4.6,0,0,1,1.6,2,10.4,10.4,0,0,1,.5,3.5V97.7h-4V95.8Zm-.1-6.8h-2a11.04,11.04,0,0,0-4.7.8,2.717,2.717,0,0,0-1.6,2.6,2.384,2.384,0,0,0,.9,2,4.621,4.621,0,0,0,2.5.7,5.9,5.9,0,0,0,1.4-.2,5.023,5.023,0,0,0,1.3-.5,7.459,7.459,0,0,0,1.2-.7,2.836,2.836,0,0,0,.9-1V89Z"/>
      </g>
      <g id="Group_167" data-name="Group 167">
        <path id="Path_1250" data-name="Path 1250" d="M815.5,97.9a10.636,10.636,0,0,1-3.7-.6,7.5,7.5,0,0,1-2.8-1.8,8.884,8.884,0,0,1-1.8-3,13.634,13.634,0,0,1,0-8,7.5,7.5,0,0,1,4.6-4.8,10.636,10.636,0,0,1,3.7-.6,9.246,9.246,0,0,1,2.9.4,8.359,8.359,0,0,1,2.3,1.2,5.806,5.806,0,0,1,1.6,1.9,7.2,7.2,0,0,1,.8,2.6h-3.9a2.836,2.836,0,0,0-.4-1.3,3.916,3.916,0,0,0-.8-1,2.384,2.384,0,0,0-1.1-.6,5.9,5.9,0,0,0-1.4-.2,4.058,4.058,0,0,0-1.9.4,4.428,4.428,0,0,0-1.5,1.2,5.283,5.283,0,0,0-.9,2,13.217,13.217,0,0,0,0,5.6,5.283,5.283,0,0,0,.9,2,4.428,4.428,0,0,0,1.5,1.2,4.058,4.058,0,0,0,1.9.4,5.9,5.9,0,0,0,1.4-.2,2.384,2.384,0,0,0,1.1-.6,3.916,3.916,0,0,0,.8-1,4.952,4.952,0,0,0,.4-1.3h3.9a6.63,6.63,0,0,1-.8,2.6,4.945,4.945,0,0,1-1.6,1.9,8.36,8.36,0,0,1-2.3,1.2A9.246,9.246,0,0,1,815.5,97.9Z"/>
      </g>
      <g id="Group_168" data-name="Group 168">
        <path id="Path_1251" data-name="Path 1251" d="M841.8,97.5h-4.6l-5.4-8.9L830,90.3v7.2h-4v-25h4V86.6l6.5-7.2h4.8l-6.5,6.9Z"/>
      </g>
    </g>
    <g id="Group_171" data-name="Group 171">
      <g id="Group_170" data-name="Group 170">
        <path id="Path_1252" data-name="Path 1252" d="M843.4,90.5a5.381,5.381,0,0,1,.4-2.2,5.243,5.243,0,0,1,1.1-1.9,14.875,14.875,0,0,1,1.8-1.7,18.306,18.306,0,0,1,2.5-1.5,17.73,17.73,0,0,1-1.9-2.9,6.076,6.076,0,0,1-.6-2.5,6.551,6.551,0,0,1,.5-2.5,6.228,6.228,0,0,1,1.4-1.8,5.291,5.291,0,0,1,2.1-1.1,10.054,10.054,0,0,1,2.5-.4,6.9,6.9,0,0,1,2.5.4,6.44,6.44,0,0,1,2,1.1,5.155,5.155,0,0,1,1.3,1.7,5.556,5.556,0,0,1,.5,2.3,4.844,4.844,0,0,1-.3,1.8,6.466,6.466,0,0,1-.9,1.6,10.609,10.609,0,0,1-1.5,1.5,9.251,9.251,0,0,1-2.2,1.4l4.6,5.6a12.086,12.086,0,0,0,.5-1.8,12.313,12.313,0,0,0,.2-2h3.9a21.978,21.978,0,0,1-.6,3.7,17.879,17.879,0,0,1-1.3,3.2l2.5,2.9-2.9,2.5-2.1-2.5a9.164,9.164,0,0,1-3.3,1.9,12.451,12.451,0,0,1-4,.6,11.418,11.418,0,0,1-3.3-.5,6.142,6.142,0,0,1-2.6-1.5,6.576,6.576,0,0,1-1.7-2.3A3.98,3.98,0,0,1,843.4,90.5Zm8.5,4.2a6.405,6.405,0,0,0,4.9-1.9L851,85.7c-.6.4-1.1.8-1.6,1.1a5.729,5.729,0,0,0-1.1,1.1,3,3,0,0,0-.6,1.1,5.068,5.068,0,0,0-.2,1.3,4.671,4.671,0,0,0,.3,1.7,3.917,3.917,0,0,0,2.3,2.3A5.262,5.262,0,0,0,851.9,94.7Zm-1.5-17.1a3.194,3.194,0,0,0,.3,1.4,7.889,7.889,0,0,0,1,1.6l.7,1a8.511,8.511,0,0,0,1.4-.9,9.013,9.013,0,0,0,1-.9,1.905,1.905,0,0,0,.5-1,3.125,3.125,0,0,0,0-2.2,4.052,4.052,0,0,0-.5-.9,5.548,5.548,0,0,0-.8-.6,2.6,2.6,0,0,0-2,0,2.1,2.1,0,0,0-1.3,1.3A1.8,1.8,0,0,0,850.4,77.6Z"/>
      </g>
    </g>
    <g id="Group_176" data-name="Group 176">
      <g id="Group_172" data-name="Group 172">
        <path id="Path_1253" data-name="Path 1253" d="M868.4,72.5h9.5a24.391,24.391,0,0,1,2.8.1,9.3,9.3,0,0,1,2.4.5,6.916,6.916,0,0,1,1.9,1,4.39,4.39,0,0,1,1.4,1.6,7.725,7.725,0,0,1,1.2,4.3,8.62,8.62,0,0,1-.6,3.4,5.778,5.778,0,0,1-1.9,2.5,7.077,7.077,0,0,1-3,1.5,17.045,17.045,0,0,1-4.1.5h-5.3v9.6h-4.2v-25Zm4.2,11.9h5.3a9,9,0,0,0,2.5-.3,6.712,6.712,0,0,0,1.7-.8A3.805,3.805,0,0,0,883,82a4.844,4.844,0,0,0,.3-1.8,3.575,3.575,0,0,0-.4-1.9,4.125,4.125,0,0,0-1-1.3,6.689,6.689,0,0,0-1.7-.7,8.216,8.216,0,0,0-2.3-.2h-5.3Z"/>
      </g>
      <g id="Group_173" data-name="Group 173">
        <path id="Path_1254" data-name="Path 1254" d="M902.8,95.8a9.814,9.814,0,0,1-8.6,1.9,6.256,6.256,0,0,1-2-1,5.392,5.392,0,0,1-1.4-1.6,5.556,5.556,0,0,1-.5-2.3,5.039,5.039,0,0,1,2.7-4.7c1.8-1,4.5-1.6,8.2-1.6h1.5V85.1c0-.4-.1-.7-.1-1a2.371,2.371,0,0,0-.9-1.5,4.369,4.369,0,0,0-2.9-.8,5.129,5.129,0,0,0-3,.7,2.788,2.788,0,0,0-1.1,2.2H891c.2-3.7,2.9-5.6,8.1-5.6a15.138,15.138,0,0,1,3.2.3,7.066,7.066,0,0,1,2.5,1.1,4.6,4.6,0,0,1,1.6,2,10.4,10.4,0,0,1,.5,3.5V97.7h-4V95.8Zm0-6.8h-2a11.04,11.04,0,0,0-4.7.8,2.717,2.717,0,0,0-1.6,2.6,2.384,2.384,0,0,0,.9,2,4.621,4.621,0,0,0,2.5.7,5.9,5.9,0,0,0,1.4-.2,5.023,5.023,0,0,0,1.3-.5,7.459,7.459,0,0,0,1.2-.7,2.836,2.836,0,0,0,.9-1V89Z"/>
      </g>
      <g id="Group_174" data-name="Group 174">
        <path id="Path_1255" data-name="Path 1255" d="M919.1,97.9a10.636,10.636,0,0,1-3.7-.6,7.5,7.5,0,0,1-2.8-1.8,8.884,8.884,0,0,1-1.8-3,13.634,13.634,0,0,1,0-8,7.5,7.5,0,0,1,4.6-4.8,10.636,10.636,0,0,1,3.7-.6,9.246,9.246,0,0,1,2.9.4,8.359,8.359,0,0,1,2.3,1.2,5.806,5.806,0,0,1,1.6,1.9,7.2,7.2,0,0,1,.8,2.6h-3.9a2.836,2.836,0,0,0-.4-1.3,3.916,3.916,0,0,0-.8-1,2.384,2.384,0,0,0-1.1-.6,5.9,5.9,0,0,0-1.4-.2,4.058,4.058,0,0,0-1.9.4,4.428,4.428,0,0,0-1.5,1.2,5.283,5.283,0,0,0-.9,2,13.217,13.217,0,0,0,0,5.6,5.283,5.283,0,0,0,.9,2,4.428,4.428,0,0,0,1.5,1.2,4.058,4.058,0,0,0,1.9.4,5.9,5.9,0,0,0,1.4-.2,2.384,2.384,0,0,0,1.1-.6,3.916,3.916,0,0,0,.8-1,4.952,4.952,0,0,0,.4-1.3h3.9a6.63,6.63,0,0,1-.8,2.6,4.945,4.945,0,0,1-1.6,1.9,8.36,8.36,0,0,1-2.3,1.2A8.85,8.85,0,0,1,919.1,97.9Z"/>
      </g>
      <g id="Group_175" data-name="Group 175">
        <path id="Path_1256" data-name="Path 1256" d="M945.5,97.5h-4.6l-5.4-8.9-1.8,1.7v7.2h-4v-25h4V86.6l6.5-7.2H945l-6.5,6.9Z"/>
      </g>
    </g>
  </g>
</svg>
